<svg xmlns="http://www.w3.org/2000/svg" width="99" height="79" viewBox="0 0 99 79" fill="none">
  <g clip-path="url(#clip0_27_12)">
    <path d="M64.2328 63.2379C63.6878 63.2514 63.1465 63.1442 62.6478 62.9238C62.2186 62.7282 61.8543 62.4138 61.5979 62.0179L62.8397 60.8342C62.984 61.0928 63.1916 61.3105 63.4432 61.4667C63.6934 61.612 63.9785 61.6859 64.2677 61.6805C64.5894 61.6955 64.9049 61.5879 65.1504 61.3795C65.3758 61.1788 65.5299 60.8604 65.6157 60.427L66.3937 56.479H63.5479L63.8387 54.9696H68.5531L67.4857 60.3223C67.3957 60.9303 67.1819 61.5133 66.8576 62.0353C66.5936 62.4386 66.219 62.7572 65.7786 62.9529C65.2884 63.153 64.7622 63.2501 64.2328 63.2379Z" fill="white"/>
    <path d="M71.3377 63.1914C70.8741 63.2036 70.4161 63.089 70.0129 62.8598C69.6431 62.6403 69.3633 62.2966 69.2233 61.8899C69.0692 61.4653 69.0532 60.9374 69.1768 60.3107L69.8632 56.8498H71.6852L71.0119 60.1944C70.9262 60.651 70.9654 61.0043 71.1283 61.2515C71.2911 61.4987 71.5849 61.6238 72.0109 61.6238C72.4244 61.6361 72.8278 61.4952 73.1437 61.2283C73.4491 60.9646 73.6522 60.5623 73.753 60.0213L74.3914 56.8498H76.2033L74.9599 63.1027H73.2441L73.5931 61.3373L73.849 61.8594C73.5805 62.2949 73.1964 62.6472 72.7395 62.8773C72.3027 63.0887 71.8229 63.1962 71.3377 63.1914Z" fill="white"/>
    <path d="M76.6469 63.0983L78.3657 54.481H80.1775L78.4631 63.0983H76.6469Z" fill="white"/>
    <path d="M80.1426 63.0983L81.3742 56.8455H83.1963L81.9428 63.0983H80.1426ZM82.5928 55.973C82.4531 55.9793 82.3135 55.958 82.182 55.9104C82.0505 55.8627 81.9297 55.7896 81.8265 55.6952C81.7342 55.6113 81.6607 55.5088 81.6106 55.3946C81.5605 55.2804 81.535 55.1569 81.5357 55.0321C81.5336 54.8882 81.5621 54.7455 81.6192 54.6134C81.6764 54.4813 81.7609 54.3628 81.8672 54.2658C82.1051 54.0501 82.4189 53.9376 82.7397 53.9532C83.02 53.9374 83.2958 54.0283 83.5118 54.2076C83.6053 54.2881 83.6798 54.3882 83.7301 54.5009C83.7804 54.6135 83.8051 54.7358 83.8027 54.8591C83.8086 55.009 83.7826 55.1585 83.7264 55.2976C83.6703 55.4367 83.5852 55.5623 83.4769 55.6662C83.3576 55.7742 83.218 55.8575 83.0662 55.9112C82.9145 55.9648 82.7536 55.9878 82.5928 55.9788V55.973Z" fill="white"/>
    <path d="M86.298 63.1914C85.8345 63.2036 85.3764 63.089 84.9733 62.8598C84.6035 62.6403 84.3236 62.2966 84.1837 61.8899C84.0295 61.4653 84.0135 60.9374 84.1371 60.3107L84.822 56.8498H86.6455L85.9723 60.1944C85.8865 60.651 85.9257 61.0043 86.0886 61.2515C86.2515 61.4987 86.5452 61.6238 86.9713 61.6238C87.3843 61.6363 87.7873 61.4954 88.1026 61.2283C88.4094 60.9651 88.6115 60.5623 88.7133 60.0213L89.3517 56.8498H91.1636L89.9203 63.1027H88.2058L88.5548 61.3373L88.8108 61.8594C88.5423 62.2949 88.1582 62.6472 87.7013 62.8773C87.264 63.0889 86.7837 63.1964 86.298 63.1914Z" fill="white"/>
    <path d="M93.877 63.1914C93.3579 63.194 92.8405 63.1314 92.337 63.0052C91.936 62.9161 91.5534 62.7587 91.2057 62.5399L91.9139 61.2312C92.2202 61.4275 92.5553 61.5747 92.907 61.6674C93.2906 61.7741 93.6868 61.8284 94.0849 61.8288C94.5105 61.8288 94.8202 61.7731 95.0141 61.6616C95.0983 61.6231 95.1701 61.5618 95.2215 61.4848C95.2728 61.4077 95.3017 61.3179 95.3049 61.2254C95.304 61.1523 95.2806 61.0813 95.2379 61.022C95.1953 60.9627 95.1354 60.918 95.0664 60.8938C94.8675 60.8091 94.659 60.7491 94.4455 60.715C94.1896 60.6684 93.9235 60.6146 93.6443 60.5521C93.3711 60.4915 93.1047 60.4038 92.8489 60.2904C92.6048 60.1839 92.391 60.0185 92.2265 59.809C92.0522 59.5575 91.9668 59.2551 91.9837 58.9496C91.972 58.5187 92.116 58.0979 92.3894 57.7645C92.6896 57.4206 93.0768 57.164 93.5105 57.0214C94.0356 56.843 94.5876 56.7565 95.1421 56.7655C95.5659 56.7671 95.9883 56.8159 96.4014 56.9109C96.7672 56.9852 97.1184 57.1188 97.4411 57.3064L96.7852 58.6094C96.5036 58.421 96.188 58.2892 95.856 58.2211C95.5504 58.1574 95.2391 58.1243 94.9268 58.1222C94.5168 58.1222 94.2129 58.1823 94.0151 58.3025C93.9319 58.3424 93.861 58.404 93.8098 58.4807C93.7586 58.5575 93.7291 58.6466 93.7243 58.7388C93.7262 58.8136 93.7504 58.8861 93.7936 58.9472C93.8368 59.0083 93.8972 59.0552 93.9671 59.082C94.1629 59.1734 94.3704 59.2375 94.5837 59.2725C94.8309 59.319 95.098 59.3713 95.3849 59.4295C95.6614 59.4846 95.9304 59.5724 96.1861 59.6912C96.4249 59.8005 96.6339 59.9656 96.7954 60.1726C96.9654 60.415 97.0493 60.7073 97.0339 61.0029C97.0483 61.4408 96.9014 61.8688 96.6209 62.2055C96.3174 62.544 95.9288 62.7951 95.4954 62.9325C94.9742 63.1088 94.4271 63.1963 93.877 63.1914Z" fill="white"/>
    <path d="M62.5023 75.0223L64.1295 66.898H65.6665L67.9772 72.6462H67.1643L71.6547 66.898H73.2805L71.6664 75.0267H69.901L70.9916 69.5794H71.3377L67.7489 74.1556H66.9127L64.9962 69.5678L65.3452 69.6027L64.2647 75.0267L62.5023 75.0223Z" fill="white"/>
    <path d="M73.4767 75.0223L74.7083 68.7695H76.5318L75.2769 75.0223H73.4767ZM75.9269 67.897C75.7872 67.9033 75.6476 67.882 75.5161 67.8344C75.3846 67.7867 75.2638 67.7136 75.1606 67.6193C75.0683 67.5353 74.9947 67.4329 74.9446 67.3187C74.8944 67.2044 74.869 67.0809 74.8698 66.9562C74.8675 66.8124 74.8958 66.6697 74.9527 66.5376C75.0096 66.4055 75.0938 66.287 75.1998 66.1898C75.4359 65.9759 75.7468 65.8636 76.0651 65.8772C76.3454 65.8614 76.6212 65.9523 76.8372 66.1317C76.9307 66.2121 77.0052 66.3123 77.0555 66.4249C77.1057 66.5375 77.1305 66.6598 77.128 66.7831C77.134 66.933 77.108 67.0825 77.0518 67.2216C76.9957 67.3607 76.9106 67.4864 76.8023 67.5902C76.5635 67.8062 76.2486 67.9187 75.9269 67.9028V67.897Z" fill="white"/>
    <path d="M76.9609 75.0223L78.6797 66.405H80.4989L78.7801 75.0223H76.9609ZM78.7728 73.7674L79.1669 71.5265L82.5114 68.7738H84.8802L81.3859 71.6967L80.3869 72.4397L78.7728 73.7674ZM81.652 75.0223L80.0728 72.3976L81.3277 71.0161L83.7663 75.0223H81.652Z" fill="white"/>
    <path d="M87.505 75.1154C86.9245 75.1286 86.3486 75.0092 85.8211 74.7664C85.3642 74.5542 84.9777 74.2156 84.7072 73.7907C84.4366 73.3473 84.2993 72.8354 84.3117 72.3162C84.3004 71.6639 84.463 71.0205 84.7828 70.4519C85.091 69.9108 85.5403 69.4635 86.0828 69.1577C86.6664 68.8328 87.3257 68.6682 87.9936 68.6808C88.5417 68.667 89.0852 68.7847 89.5786 69.024C90.0079 69.2379 90.3667 69.5704 90.6125 69.9822C90.8642 70.4247 90.9904 70.9275 90.9775 71.4364C90.9775 71.5999 90.9658 71.7632 90.9426 71.925C90.9193 72.0864 90.8917 72.242 90.8612 72.3889H85.6931L85.8909 71.3317H90.0134L89.2587 71.6574C89.3317 71.3682 89.3134 71.0634 89.2063 70.7849C89.1078 70.5549 88.9367 70.3634 88.7192 70.2396C88.472 70.1052 88.1934 70.039 87.9122 70.0477C87.556 70.0364 87.2051 70.1354 86.9073 70.3312C86.6275 70.5275 86.41 70.8001 86.2806 71.1165C86.1315 71.4767 86.0582 71.8638 86.0654 72.2536C86.0654 72.7267 86.1987 73.081 86.4653 73.3166C86.7319 73.5522 87.1405 73.67 87.6911 73.67C88.0029 73.6725 88.313 73.6234 88.6087 73.5245C88.8843 73.4336 89.1404 73.2915 89.3634 73.1058L90.1181 74.2909C89.7539 74.5776 89.3383 74.7923 88.8937 74.9234C88.4426 75.0545 87.9748 75.1192 87.505 75.1154Z" fill="white"/>
    <path d="M85.6859 27.9559C85.2322 23.7185 84.0979 19.8995 82.2832 16.4987C79.6919 11.6404 75.7191 7.66331 70.3984 4.63432C63.7762 0.865175 56.5607 -0.202169 49.1286 1.14873C37.5114 3.26161 29.2722 9.90852 24.8356 20.8321C23.2882 24.5754 22.4823 28.5835 22.4625 32.6339C22.4537 37.213 23.4804 41.7849 25.4755 46.3029C27.0925 49.9717 29.1806 53.3134 32.2038 56.0064C33.1548 56.8527 34.212 57.5275 35.4654 57.8256C36.6855 58.1164 37.7601 57.6438 38.1629 56.5634C38.7903 54.893 38.7944 53.0525 38.1745 51.3793C37.8837 50.565 37.2468 50.1622 36.3816 50.1564C35.378 50.134 34.4034 50.4937 33.655 51.1627C33.4587 51.3343 33.2595 51.5029 33.0545 51.676C32.9995 51.7231 32.9356 51.7587 32.8667 51.7807C32.7977 51.8027 32.725 51.8107 32.6529 51.8042C32.5808 51.7977 32.5108 51.7768 32.4469 51.7428C32.383 51.7088 32.3265 51.6623 32.2809 51.6062C27.5912 45.666 25.301 39.0583 25.5801 31.7963C25.6286 30.5301 25.7505 29.2677 25.9451 28.0156C28.0478 14.3829 39.5225 3.836 53.2831 2.89516C61.8015 2.31351 69.3645 4.79719 75.6915 10.6021C77.7311 12.447 79.5226 14.5488 81.021 16.855C84.3553 22.0637 85.7251 28.0388 84.9137 34.8137C84.3713 39.339 82.4925 43.3437 79.7951 46.9776C79.6133 47.2205 79.2643 47.3397 78.9924 47.5157C78.8761 47.1972 78.6391 46.87 78.6594 46.5603C78.7932 44.6103 78.8383 42.6341 79.1858 40.7204C79.9507 36.5121 81.0137 32.3533 81.0646 28.0417C81.0835 26.5061 81.367 24.9211 80.6051 23.4815C80.3622 23.0272 79.9727 22.6684 79.4999 22.4636C78.5009 22.0943 77.5601 22.5072 76.8825 23.3361C74.7899 25.8591 73.4158 28.7979 71.9762 31.7018C71.1725 33.2994 70.3747 34.9009 69.5826 36.5063C69.4707 35.8069 69.5245 35.1438 69.555 34.4807C69.6655 32.0421 69.8197 29.6035 69.8546 27.1634C69.8735 25.8969 68.921 25.1189 67.6733 25.1611C66.6976 25.1945 66.2337 25.8678 65.8731 26.6341C64.9497 28.6045 64.054 30.5879 63.1335 32.5598C62.5678 33.7711 61.9774 34.9707 61.3987 36.1762C61.275 35.8518 61.221 35.505 61.2402 35.1583C61.2126 33.4904 61.2038 31.8225 61.1428 30.1561C61.1137 29.3359 60.8636 29.1382 60.0594 29.1193C58.4686 29.0742 57.5452 29.6253 57.3067 31.19C56.9112 33.7871 56.6553 36.4133 56.4895 39.0424C56.411 40.2827 56.1536 41.2876 55.1153 42.0553C54.5337 42.4829 54.0654 43.0543 53.5303 43.5429C53.2753 43.7445 53.0088 43.931 52.732 44.1013C52.6884 43.6825 52.6389 43.4062 52.6346 43.13C52.5822 38.7995 52.5337 34.4691 52.4891 30.1386C52.4819 29.6326 52.5328 29.0771 52.3437 28.6365C52.1678 28.2264 51.7621 27.764 51.3593 27.6317C50.2192 27.2783 48.8741 28.0679 48.4248 29.1905C47.8242 30.6488 47.5335 32.2162 47.5712 33.7929C47.673 37.6376 47.7603 41.4824 47.862 45.3257C47.8809 45.9815 47.8039 46.5545 47.2702 47.03C43.187 50.6581 40.4837 55.1892 38.7649 60.3209C37.6743 63.5782 37.2773 66.9387 37.9782 70.3385C38.5162 72.9487 40.7731 74.2429 43.3585 73.5798C45.4729 73.0389 46.9939 71.7447 48.1107 69.9154C49.828 67.1059 50.7543 64.0144 51.352 60.8095C52.2188 56.0728 52.6259 51.2634 52.5677 46.4483C52.5677 46.0891 52.6796 45.618 52.921 45.3868C54.0305 44.3209 55.2055 43.3219 56.3281 42.3244C56.4041 42.3532 56.4768 42.3902 56.5448 42.4349C57.9989 43.9414 59.3076 43.7262 60.1656 41.8111C61.9106 37.8849 63.6395 33.9368 65.3787 30.0005C65.4645 29.8056 65.5837 29.6268 65.687 29.4406C65.8128 29.5929 65.8762 29.7873 65.8644 29.9845C65.7437 31.5273 65.6564 33.0745 65.4776 34.6101C65.2376 36.6677 65.1635 38.7079 65.7306 40.7277C66.084 41.9855 67.0699 42.3171 68.0136 41.4053C68.5557 40.8592 69.0025 40.2261 69.3354 39.5324C71.4541 35.2659 73.5248 30.9777 75.6261 26.7039C75.7875 26.3753 76.0507 26.0975 76.2674 25.7951L76.5465 25.8576C76.6076 26.1964 76.7269 26.5367 76.7196 26.8755C76.6643 29.5177 76.4288 32.141 75.7889 34.7134C74.8001 38.7195 74.0556 42.7621 74.3115 46.9093C74.3846 48.1346 74.6465 49.3412 75.088 50.4865C75.6028 51.7952 76.9144 52.0322 78.0138 51.1612C78.5313 50.7629 78.9977 50.3024 79.4025 49.79C84.3335 43.3321 86.5482 36.0148 85.6859 27.9559ZM47.5465 51.2601C47.0754 55.1165 46.7176 58.9962 46.04 62.8177C45.6663 64.9291 44.8127 66.9722 44.0333 68.9905C43.5549 70.2294 42.6082 71.1717 41.3547 71.7243C40.2641 72.2085 39.6926 71.9439 39.2811 70.8344C38.1818 67.865 38.4421 64.884 39.2811 61.9364C40.7178 56.8949 43.2073 52.4423 46.9997 48.7735C47.1684 48.6106 47.3633 48.4754 47.545 48.3256L47.7704 48.4085C47.6977 49.3581 47.6614 50.3207 47.5465 51.2601Z" fill="white"/>
    <path d="M2.12036 37.3497L97.1096 11.7291" stroke="white" stroke-width="3.78078" stroke-miterlimit="10" stroke-linecap="round"/>
  </g>
  <defs>
    <clipPath id="clip0_27_12">
      <rect width="98.77" height="77.4406" fill="white" transform="translate(0.22998 0.588912)"/>
    </clipPath>
  </defs>
</svg>