<svg width="36" height="36" viewBox="0 0 36 36" fill="none" xmlns="http://www.w3.org/2000/svg">
<path d="M35.9023 9.20899C35.9023 8.10458 35.8092 7.00465 35.5454 5.92943C35.0718 3.97089 33.955 2.47478 32.2838 1.37598C31.4241 0.814792 30.4779 0.470225 29.4723 0.288401C28.7001 0.148105 27.9178 0.0841302 27.1344 0.0661723C27.076 0.0605604 27.012 0.0482144 26.9469 0.0426025H8.95426C8.72641 0.0605604 8.49857 0.0717841 8.27073 0.0830078C7.15398 0.146983 6.04395 0.263709 4.99117 0.684597C2.99223 1.47362 1.54775 2.85301 0.70597 4.84073C0.414154 5.51303 0.267124 6.22573 0.162743 6.95078C0.0751987 7.53554 0.0280592 8.1259 0.0112237 8.71627C0.0112237 8.76341 0 8.80942 0 8.85656V27.1478C0.0112237 27.3588 0.0235697 27.5687 0.0347934 27.7797C0.111114 29.002 0.268246 30.2119 0.783413 31.3342C1.75426 33.4566 3.38506 34.8529 5.62419 35.5252C6.24935 35.7182 6.90481 35.8058 7.55915 35.8641C8.3897 35.9461 9.21914 35.9573 10.0497 35.9573H26.5575C27.3409 35.9573 28.1243 35.9045 28.9077 35.8058C30.1412 35.6475 31.2984 35.285 32.3455 34.5958C33.6026 33.7653 34.5499 32.6665 35.1571 31.2927C35.4377 30.6608 35.5959 29.9896 35.7126 29.3106C35.8821 28.2994 35.9169 27.2758 35.9169 26.2533C35.9113 20.5707 35.9169 14.8893 35.9113 9.20674L35.9023 9.20899ZM26.2915 15.1766V23.7235C26.2915 24.3486 26.2039 24.9626 25.9233 25.5293C25.4912 26.4115 24.7898 26.9671 23.8481 27.2365C23.3273 27.388 22.7897 27.4699 22.2465 27.4935C20.8255 27.5642 19.5921 26.599 19.3407 25.196C19.124 24.0388 19.6796 22.7638 20.8951 22.1679C21.3744 21.9344 21.8952 21.7941 22.4148 21.6886C22.9816 21.5663 23.5484 21.4551 24.1096 21.3261C24.5249 21.2329 24.7931 20.9815 24.8751 20.5539C24.8986 20.4607 24.9042 20.3608 24.9042 20.2677C24.9042 17.5493 24.9042 14.8309 24.9042 12.1193C24.9042 12.0261 24.8863 11.9319 24.8638 11.8443C24.8055 11.6165 24.6416 11.4818 24.4081 11.493C24.168 11.5042 23.9345 11.5458 23.7011 11.5929C22.5607 11.8151 21.4215 12.043 20.2868 12.2764L14.7513 13.3932C14.7277 13.3988 14.6985 13.4111 14.675 13.4111C14.2597 13.5279 14.1138 13.7153 14.0958 14.1474C14.0902 14.2114 14.0958 14.2765 14.0958 14.3405C14.0902 18.234 14.0958 22.1274 14.0902 26.0198C14.0902 26.6517 14.0195 27.2713 13.7692 27.8549C13.3539 28.8134 12.6177 29.4161 11.6244 29.7023C11.098 29.8538 10.5604 29.9425 10.0104 29.9593C8.57826 30.0121 7.38518 29.0592 7.14051 27.6506C6.9295 26.4351 7.48508 25.1253 8.86447 24.5405C9.40208 24.3183 9.95765 24.196 10.5244 24.0792C10.9509 23.9917 11.3842 23.9042 11.8107 23.8166C12.3831 23.6943 12.6816 23.3318 12.7108 22.747V22.5248C12.7108 18.0937 12.7108 13.6625 12.7108 9.23143C12.7108 9.044 12.7344 8.85769 12.7748 8.67586C12.8803 8.24936 13.1845 8.00356 13.593 7.90367C13.9735 7.80378 14.3652 7.73419 14.7502 7.65226C15.849 7.43003 16.9422 7.2078 18.041 6.99119L21.4372 6.30093C22.4429 6.10227 23.4418 5.898 24.4474 5.69934C24.7752 5.63537 25.1085 5.56466 25.4407 5.54109C25.902 5.50068 26.2241 5.7925 26.2713 6.26052C26.2825 6.37164 26.2892 6.48275 26.2892 6.59387C26.2892 9.45254 26.2892 12.3112 26.2892 15.1699L26.2915 15.1766Z" fill="white"/>
</svg>
