<svg width="37" height="36" viewBox="0 0 37 36" fill="none" xmlns="http://www.w3.org/2000/svg">
<path d="M18.8679 0.0421143C8.96978 0.0421143 0.916992 8.0955 0.916992 17.9945C0.916992 27.8996 8.96978 35.9579 18.8679 35.9579C28.7738 35.9579 36.8328 27.8996 36.8328 17.9945C36.8328 8.0955 28.7738 0.0421143 18.8679 0.0421143ZM9.75817 24.5909C11.8394 23.9573 13.9733 23.6361 16.1002 23.6361C19.7125 23.6361 23.2786 24.5515 26.4147 26.2844C26.6013 26.3861 26.7708 26.7221 26.8469 27.1405C26.923 27.5588 26.8927 27.989 26.7706 28.2127C26.6164 28.4998 26.3037 28.6854 25.9736 28.6854C25.8101 28.6854 25.6663 28.6486 25.5225 28.5709C22.6436 26.9885 19.3855 26.152 16.1002 26.152C14.1154 26.152 12.1669 26.4458 10.3104 27.0244C10.22 27.0519 10.127 27.0659 10.034 27.0659C9.62745 27.066 9.27466 26.807 9.15631 26.4228C8.99652 25.8975 9.32706 24.7318 9.75817 24.5909ZM8.97508 17.9768C11.2948 17.3462 13.6921 17.0264 16.1003 17.0264C20.4296 17.0264 24.7287 18.074 28.5355 20.0573C28.8024 20.1928 28.999 20.4224 29.0891 20.7038C29.1805 20.9889 29.1529 21.2954 29.0103 21.569C28.6706 22.2338 28.2735 22.6806 28.022 22.6806C27.8437 22.6806 27.6717 22.6379 27.5003 22.5522C23.9654 20.7115 20.1299 19.7781 16.1002 19.7781C13.8587 19.7781 11.6596 20.0729 9.56599 20.6537C9.4686 20.68 9.36863 20.6933 9.26912 20.6933C8.76548 20.6935 8.32165 20.3533 8.19023 19.8675C8.02196 19.2358 8.40644 18.1314 8.97508 17.9768ZM8.77454 13.6555C8.66821 13.6818 8.55952 13.6949 8.45142 13.6949C7.84273 13.6951 7.3153 13.2837 7.16881 12.6955C6.98523 11.951 7.45108 11.086 8.1257 10.9161C10.7494 10.2716 13.4324 9.94486 16.1002 9.94486C21.2645 9.94486 26.2104 11.1059 30.8022 13.3965C31.1211 13.5539 31.3589 13.8254 31.4719 14.1611C31.585 14.4972 31.56 14.859 31.4022 15.1786C31.1872 15.609 30.7225 16.0723 30.2104 16.0723C30.0129 16.0723 29.8101 16.0261 29.6306 15.9417C25.4126 13.8314 20.8604 12.7614 16.1003 12.7614C13.654 12.7615 11.1894 13.0622 8.77454 13.6555Z" fill="white"/>
</svg>
