<svg width="14" height="14" viewBox="0 0 14 14" fill="none" xmlns="http://www.w3.org/2000/svg">
<path d="M13.6183 10.3366C13.4593 10.9316 12.9906 11.4003 12.3955 11.5593C11.3171 11.8484 6.99214 11.8484 6.99214 11.8484C6.99214 11.8484 2.6672 11.8484 1.58873 11.5593C0.993711 11.4003 0.525011 10.9316 0.365961 10.3366C0.0769043 9.2581 0.0769043 7.00772 0.0769043 7.00772C0.0769043 7.00772 0.0769043 4.75735 0.365961 3.67888C0.525011 3.08387 0.993711 2.61517 1.58873 2.45612C2.6672 2.16706 6.99214 2.16706 6.99214 2.16706C6.99214 2.16706 11.3171 2.16706 12.3955 2.45612C12.9906 2.61517 13.4593 3.08387 13.6183 3.67888C13.9074 4.75735 13.9074 7.00772 13.9074 7.00772C13.9074 7.00772 13.9074 9.2581 13.6183 10.3366ZM5.60909 4.93315V9.08229L9.20225 7.00772L5.60909 4.93315Z" fill="white"/>
</svg>
